Coordinates
version=1
nRows=36
nColumns=13
inDegrees=yes

Units are S.I. units (second, meters, Newtons, ...)
Angles are in degrees.

endheader
time	pelvis_tilt	pelvis_list	pelvis_rotation	pelvis_tx	pelvis_ty	pelvis_tz	hip_flexion_r	hip_adduction_r	hip_rotation_r	knee_angle_r	ankle_angle_r	subtalar_angle_r
      0.00000000	    -11.18685745	     -2.47315039	      9.27018945	     -0.74756214	      0.84133615	      0.04324366	     39.09294202	      0.62046821	    -13.76377291	     -9.72031647	      2.46202331	      0.01008780
      0.01000000	    -10.94292829	     -2.61405422	      9.14619531	     -0.73030387	      0.84144829	      0.04468125	     38.31892562	      1.18894639	    -12.74218728	    -10.16746459	     -0.39124770	     -1.84137153
      0.02000000	    -10.90225398	     -2.84350738	      8.84672553	     -0.71331002	      0.84190521	      0.04655171	     37.79887838	      1.87990805	    -11.72670963	    -10.67566781	     -3.76489696	     -3.34761524
      0.03000000	    -11.00421580	     -3.21507733	      8.39807641	     -0.69662393	      0.84269755	      0.04888231	     37.55950729	      2.72086690	    -10.97502206	    -11.70613038	     -5.11959320	     -2.99115311
      0.04000000	    -11.05632809	     -3.55073457	      7.82220014	     -0.68006411	      0.84386208	      0.05142595	     37.44453634	      3.55255196	    -10.27290561	    -13.25500875	     -5.61965653	     -2.60689929
      0.05000000	    -10.95057327	     -3.89510741	      7.25064943	     -0.66343508	      0.84536221	      0.05369249	     37.27521993	      4.30972423	     -9.87696835	    -15.08385311	     -5.69201572	     -3.27893866
      0.06000000	    -10.76636019	     -4.28911587	      6.71420375	     -0.64732411	      0.84684866	      0.05567444	     37.12570874	      5.02973558	     -9.83127229	    -17.21435168	     -4.28317390	     -2.93247479
      0.07000000	    -10.51095780	     -4.62123416	      6.06415135	     -0.63168213	      0.84828836	      0.05763276	     36.78918632	      5.78793980	     -9.67502615	    -19.20227550	     -2.02271154	     -1.79230487
      0.08000000	    -10.22543212	     -4.91197665	      5.31822712	     -0.61654201	      0.84970850	      0.05935743	     36.28147561	      6.55491940	     -9.33881256	    -20.91473816	      0.15285134	     -0.83331954
      0.09000000	     -9.95309985	     -5.29847926	      4.53764853	     -0.60196672	      0.85094055	      0.06095357	     35.62397913	      7.41554809	     -9.15351974	    -22.18891903	      1.82605261	     -0.41302960
      0.10000000	     -9.71745477	     -5.76866964	      3.75129557	     -0.58792573	      0.85203117	      0.06251146	     34.77428684	      8.37049056	     -9.06131409	    -22.98063346	      3.42104274	      0.30981784
      0.11000000	     -9.55789994	     -6.26888178	      2.99251247	     -0.57433938	      0.85305444	      0.06421220	     33.78241713	      9.38484865	     -8.93691979	    -23.30233178	      4.78043643	      0.88190592
      0.12000000	     -9.46232079	     -6.70007923	      2.30579666	     -0.56103973	      0.85410991	      0.06599867	     32.69649220	     10.31868551	     -8.79449465	    -23.29066088	      5.93095245	      1.09492532
      0.13000000	     -9.39775372	     -6.98668802	      1.74200645	     -0.54802072	      0.85535688	      0.06777838	     31.50721735	     11.09950821	     -8.52121870	    -23.03317561	      6.96217050	      1.12596679
      0.14000000	     -9.38713091	     -7.16254500	      1.31098982	     -0.53524216	      0.85677543	      0.06967417	     30.27983639	     11.76370983	     -8.09634717	    -22.57931874	      7.68284041	      0.73017476
      0.15000000	     -9.45153233	     -7.15458209	      1.02242653	     -0.52264710	      0.85843237	      0.07152117	     29.09264137	     12.18624002	     -7.61664022	    -22.04809061	      8.26134555	      0.23290396
      0.16000000	     -9.61799234	     -7.05187708	      0.86626890	     -0.51005201	      0.86035610	      0.07329856	     28.03175706	     12.43476752	     -7.20366260	    -21.58726794	      8.64204183	     -0.17618738
      0.17000000	     -9.86912155	     -6.88080529	      0.78598694	     -0.49751785	      0.86252137	      0.07491595	     27.08874441	     12.55335355	     -6.82016373	    -21.21990651	      8.77535963	     -0.50301718
      0.18000000	    -10.04548266	     -6.51812974	      0.78680297	     -0.48494261	      0.86482038	      0.07623480	     25.96620614	     12.39287885	     -6.56047629	    -20.62618771	      9.27183277	     -0.49804971
      0.19000000	    -10.15404244	     -6.07180340	      0.82304884	     -0.47235239	      0.86724519	      0.07735388	     24.72703206	     12.09256318	     -6.41204795	    -19.92439520	      9.86784636	     -0.26184925
      0.20000000	    -10.23030075	     -5.57189437	      0.82651664	     -0.45970083	      0.86972042	      0.07830437	     23.39809109	     11.74175408	     -6.16989480	    -19.11865676	     10.35532884	     -0.11731302
      0.21000000	    -10.28619270	     -5.08403828	      0.80674351	     -0.44701588	      0.87219028	      0.07905183	     21.96052099	     11.41477783	     -5.80285829	    -18.14014424	     10.64080721	     -0.16184394
      0.22000000	    -10.33960156	     -4.58951292	      0.76474651	     -0.43430104	      0.87448285	      0.07965610	     20.47760824	     11.09686164	     -5.25220221	    -17.07636185	     10.79633073	     -0.43584549
      0.23000000	    -10.41295479	     -4.12700482	      0.70588426	     -0.42157699	      0.87652663	      0.08011355	     18.96401088	     10.82604865	     -4.51602593	    -15.90789314	     10.69274497	     -1.10642091
      0.24000000	    -10.52738613	     -3.75575754	      0.61666066	     -0.40890266	      0.87829497	      0.08049752	     17.50033069	     10.65218444	     -3.77219670	    -14.73390375	     10.31865173	     -2.01465737
      0.25000000	    -10.68308242	     -3.43677078	      0.49230864	     -0.39619508	      0.87968578	      0.08084206	     16.09822656	     10.50720259	     -3.03088491	    -13.59035128	      9.99625893	     -2.81222606
      0.26000000	    -10.88034573	     -3.16097361	      0.33224742	     -0.38354740	      0.88070290	      0.08110618	     14.84477862	     10.37752904	     -2.37378570	    -12.60292654	      9.72715341	     -3.52313843
      0.27000000	    -11.08070543	     -2.88213773	      0.16561931	     -0.37092155	      0.88132929	      0.08124202	     13.66440849	     10.18541668	     -2.28090605	    -11.57444113	      9.83985411	     -3.76078747
      0.28000000	    -11.28936463	     -2.68718628	      0.00965603	     -0.35832356	      0.88162478	      0.08126734	     12.50435633	     10.06442016	     -2.01120712	    -10.67364968	      9.87565112	     -3.99188068
      0.29000000	    -11.51313517	     -2.52882987	     -0.15759576	     -0.34578340	      0.88153340	      0.08121877	     11.38714227	      9.96157979	     -1.70414692	     -9.83952375	      9.95547020	     -4.23256026
      0.30000000	    -11.70431050	     -2.36203409	     -0.30159839	     -0.33319907	      0.88099640	      0.08102804	     10.23720138	      9.82874265	     -1.49448911	     -8.99669619	     10.18996644	     -4.43829511
      0.31000000	    -11.80521787	     -2.27034550	     -0.41432501	     -0.32049545	      0.88028902	      0.08073584	      8.98448487	      9.76706646	     -1.46670627	     -8.14685310	     10.46107409	     -4.53340841
      0.32000000	    -11.81050899	     -2.20396276	     -0.48290262	     -0.30764032	      0.87938199	      0.08026226	      7.65929166	      9.71228030	     -1.56602067	     -7.38588424	     10.81738146	     -4.53147183
      0.33000000	    -11.70876423	     -2.16916358	     -0.54396008	     -0.29461986	      0.87820525	      0.07971634	      6.22365984	      9.67161673	     -1.62511337	     -6.65858582	     11.15600015	     -4.57736928
      0.34000000	    -11.57001691	     -2.12819607	     -0.69160503	     -0.28159507	      0.87673791	      0.07930526	      4.82366953	      9.63838291	     -1.62120572	     -6.09720237	     11.55098340	     -4.63633646
      0.35000000	    -11.34226491	     -2.11461233	     -0.87368134	     -0.26838812	      0.87512997	      0.07894566	      3.38630063	      9.64405487	     -1.63833069	     -5.69535733	     11.99685897	     -4.66469344
